<svg width="40" height="40" viewBox="0 0 40 40" fill="none" xmlns="http://www.w3.org/2000/svg">
<path d="M3.3335 11.6666H8.10855C9.31973 11.6666 10.4813 11.0671 11.3377 10C12.5609 8.476 14.3701 7.94385 16.0111 8.6254L18.3335 9.58995M3.3335 26.6113H6.03463C7.96711 26.6113 8.93335 26.6113 9.84703 26.8688C9.89145 26.8813 9.93573 26.8943 9.97986 26.9076C10.8878 27.1834 11.6918 27.7014 13.2997 28.7378C16.4466 30.7659 18.0202 31.7801 19.7347 31.6566C19.8155 31.6508 19.8962 31.6429 19.9767 31.6334C21.6828 31.4294 23.02 30.1368 25.6945 27.5513L28.3335 24.9999" stroke="#17181A" stroke-width="3" stroke-linecap="round"/>
<path d="M36.0002 12.0563H31.8055C30.0292 12.0563 28.775 11.0911 27.5007 9.80422C26.6753 8.97071 25.622 8.47946 24.5148 8.41181C23.2768 8.33617 21.8423 8.22967 20.6402 8.55994C19.302 8.92752 18.4185 9.93431 17.4838 10.9865L15.072 13.7018C14.0873 14.8103 14.0873 16.6075 15.072 17.7161C15.9218 18.6728 17.2533 18.8213 18.2533 18.0706C18.973 17.5306 19.7907 16.6584 20.6387 16.3837C21.593 16.0745 22.185 16.7691 22.7258 17.4998L26.5928 22.7239C28.028 24.6626 28.7455 25.6321 29.7265 26.1493C30.7075 26.6666 31.8283 26.6666 34.0702 26.6666H36.0002" stroke="#17181A" stroke-width="3" stroke-linecap="round"/>
</svg>
