<svg width="40" height="41" viewBox="0 0 40 41" fill="none" xmlns="http://www.w3.org/2000/svg">
<g clip-path="url(#clip0_11419_31458)">
<path d="M20 0.5C8.955 0.5 0 9.455 0 20.5C0 30.5267 7.38667 38.8067 17.01 40.2533V25.8H12.0617V20.5433H17.01V17.045C17.01 11.2533 19.8317 8.71167 24.645 8.71167C26.95 8.71167 28.17 8.88333 28.7467 8.96V13.5483H25.4633C23.42 13.5483 22.7067 15.4867 22.7067 17.67V20.5433H28.695L27.8833 25.8H22.7067V40.295C32.4683 38.9717 40 30.625 40 20.5C40 9.455 31.045 0.5 20 0.5Z" fill="white" fill-opacity="0.05"/>
<path d="M20 0.5C8.955 0.5 0 9.455 0 20.5C0 30.5267 7.38667 38.8067 17.01 40.2533V25.8H12.0617V20.5433H17.01V17.045C17.01 11.2533 19.8317 8.71167 24.645 8.71167C26.95 8.71167 28.17 8.88333 28.7467 8.96V13.5483H25.4633C23.42 13.5483 22.7067 15.4867 22.7067 17.67V20.5433H28.695L27.8833 25.8H22.7067V40.295C32.4683 38.9717 40 30.625 40 20.5C40 9.455 31.045 0.5 20 0.5Z" fill="white" fill-opacity="0.1"/>
<path d="M20 0.5C8.955 0.5 0 9.455 0 20.5C0 30.5267 7.38667 38.8067 17.01 40.2533V25.8H12.0617V20.5433H17.01V17.045C17.01 11.2533 19.8317 8.71167 24.645 8.71167C26.95 8.71167 28.17 8.88333 28.7467 8.96V13.5483H25.4633C23.42 13.5483 22.7067 15.4867 22.7067 17.67V20.5433H28.695L27.8833 25.8H22.7067V40.295C32.4683 38.9717 40 30.625 40 20.5C40 9.455 31.045 0.5 20 0.5Z" fill="white" fill-opacity="0.4"/>
<path d="M20 0.5C8.955 0.5 0 9.455 0 20.5C0 30.5267 7.38667 38.8067 17.01 40.2533V25.8H12.0617V20.5433H17.01V17.045C17.01 11.2533 19.8317 8.71167 24.645 8.71167C26.95 8.71167 28.17 8.88333 28.7467 8.96V13.5483H25.4633C23.42 13.5483 22.7067 15.4867 22.7067 17.67V20.5433H28.695L27.8833 25.8H22.7067V40.295C32.4683 38.9717 40 30.625 40 20.5C40 9.455 31.045 0.5 20 0.5Z" fill="white" fill-opacity="0.6"/>
<path d="M20 0.5C8.955 0.5 0 9.455 0 20.5C0 30.5267 7.38667 38.8067 17.01 40.2533V25.8H12.0617V20.5433H17.01V17.045C17.01 11.2533 19.8317 8.71167 24.645 8.71167C26.95 8.71167 28.17 8.88333 28.7467 8.96V13.5483H25.4633C23.42 13.5483 22.7067 15.4867 22.7067 17.67V20.5433H28.695L27.8833 25.8H22.7067V40.295C32.4683 38.9717 40 30.625 40 20.5C40 9.455 31.045 0.5 20 0.5Z" fill="white" fill-opacity="0.8"/>
<path d="M20 0.5C8.955 0.5 0 9.455 0 20.5C0 30.5267 7.38667 38.8067 17.01 40.2533V25.8H12.0617V20.5433H17.01V17.045C17.01 11.2533 19.8317 8.71167 24.645 8.71167C26.95 8.71167 28.17 8.88333 28.7467 8.96V13.5483H25.4633C23.42 13.5483 22.7067 15.4867 22.7067 17.67V20.5433H28.695L27.8833 25.8H22.7067V40.295C32.4683 38.9717 40 30.625 40 20.5C40 9.455 31.045 0.5 20 0.5Z" fill="white"/>
</g>
<defs>
<clipPath id="clip0_11419_31458">
<rect width="40" height="40" fill="white" transform="translate(0 0.5)"/>
</clipPath>
</defs>
</svg>
