<svg width="40" height="41" viewBox="0 0 40 41" fill="none" xmlns="http://www.w3.org/2000/svg">
<path d="M20 0.5C8.955 0.5 0 9.455 0 20.5C0 31.545 8.955 40.5 20 40.5C31.045 40.5 40 31.545 40 20.5C40 9.455 31.045 0.5 20 0.5ZM15 30.5C9.47667 30.5 5 26.0233 5 20.5C5 14.9767 9.47667 10.5 15 10.5C17.6 10.5 19.9683 11.4933 21.745 13.1217L19.355 15.4617C18.1867 14.4483 16.6667 13.8333 15 13.8333C11.3183 13.8333 8.33333 16.8183 8.33333 20.5C8.33333 24.1817 11.3183 27.1667 15 27.1667C18.3017 27.1667 21.0367 24.7633 21.5667 21.6117H15V18.2783H24.7383L24.7933 18.5C24.9267 19.1467 25 19.815 25 20.5C25 26.0233 20.5233 30.5 15 30.5ZM33.3333 22.1667V25.5H30V22.1667H26.6667V18.8333H30V15.5H33.3333V18.8333H36.6667V22.1667H33.3333Z" fill="white" fill-opacity="0.05"/>
<path d="M20 0.5C8.955 0.5 0 9.455 0 20.5C0 31.545 8.955 40.5 20 40.5C31.045 40.5 40 31.545 40 20.5C40 9.455 31.045 0.5 20 0.5ZM15 30.5C9.47667 30.5 5 26.0233 5 20.5C5 14.9767 9.47667 10.5 15 10.5C17.6 10.5 19.9683 11.4933 21.745 13.1217L19.355 15.4617C18.1867 14.4483 16.6667 13.8333 15 13.8333C11.3183 13.8333 8.33333 16.8183 8.33333 20.5C8.33333 24.1817 11.3183 27.1667 15 27.1667C18.3017 27.1667 21.0367 24.7633 21.5667 21.6117H15V18.2783H24.7383L24.7933 18.5C24.9267 19.1467 25 19.815 25 20.5C25 26.0233 20.5233 30.5 15 30.5ZM33.3333 22.1667V25.5H30V22.1667H26.6667V18.8333H30V15.5H33.3333V18.8333H36.6667V22.1667H33.3333Z" fill="white" fill-opacity="0.1"/>
<path d="M20 0.5C8.955 0.5 0 9.455 0 20.5C0 31.545 8.955 40.5 20 40.5C31.045 40.5 40 31.545 40 20.5C40 9.455 31.045 0.5 20 0.5ZM15 30.5C9.47667 30.5 5 26.0233 5 20.5C5 14.9767 9.47667 10.5 15 10.5C17.6 10.5 19.9683 11.4933 21.745 13.1217L19.355 15.4617C18.1867 14.4483 16.6667 13.8333 15 13.8333C11.3183 13.8333 8.33333 16.8183 8.33333 20.5C8.33333 24.1817 11.3183 27.1667 15 27.1667C18.3017 27.1667 21.0367 24.7633 21.5667 21.6117H15V18.2783H24.7383L24.7933 18.5C24.9267 19.1467 25 19.815 25 20.5C25 26.0233 20.5233 30.5 15 30.5ZM33.3333 22.1667V25.5H30V22.1667H26.6667V18.8333H30V15.5H33.3333V18.8333H36.6667V22.1667H33.3333Z" fill="white" fill-opacity="0.4"/>
<path d="M20 0.5C8.955 0.5 0 9.455 0 20.5C0 31.545 8.955 40.5 20 40.5C31.045 40.5 40 31.545 40 20.5C40 9.455 31.045 0.5 20 0.5ZM15 30.5C9.47667 30.5 5 26.0233 5 20.5C5 14.9767 9.47667 10.5 15 10.5C17.6 10.5 19.9683 11.4933 21.745 13.1217L19.355 15.4617C18.1867 14.4483 16.6667 13.8333 15 13.8333C11.3183 13.8333 8.33333 16.8183 8.33333 20.5C8.33333 24.1817 11.3183 27.1667 15 27.1667C18.3017 27.1667 21.0367 24.7633 21.5667 21.6117H15V18.2783H24.7383L24.7933 18.5C24.9267 19.1467 25 19.815 25 20.5C25 26.0233 20.5233 30.5 15 30.5ZM33.3333 22.1667V25.5H30V22.1667H26.6667V18.8333H30V15.5H33.3333V18.8333H36.6667V22.1667H33.3333Z" fill="white" fill-opacity="0.6"/>
<path d="M20 0.5C8.955 0.5 0 9.455 0 20.5C0 31.545 8.955 40.5 20 40.5C31.045 40.5 40 31.545 40 20.5C40 9.455 31.045 0.5 20 0.5ZM15 30.5C9.47667 30.5 5 26.0233 5 20.5C5 14.9767 9.47667 10.5 15 10.5C17.6 10.5 19.9683 11.4933 21.745 13.1217L19.355 15.4617C18.1867 14.4483 16.6667 13.8333 15 13.8333C11.3183 13.8333 8.33333 16.8183 8.33333 20.5C8.33333 24.1817 11.3183 27.1667 15 27.1667C18.3017 27.1667 21.0367 24.7633 21.5667 21.6117H15V18.2783H24.7383L24.7933 18.5C24.9267 19.1467 25 19.815 25 20.5C25 26.0233 20.5233 30.5 15 30.5ZM33.3333 22.1667V25.5H30V22.1667H26.6667V18.8333H30V15.5H33.3333V18.8333H36.6667V22.1667H33.3333Z" fill="white" fill-opacity="0.8"/>
<path d="M20 0.5C8.955 0.5 0 9.455 0 20.5C0 31.545 8.955 40.5 20 40.5C31.045 40.5 40 31.545 40 20.5C40 9.455 31.045 0.5 20 0.5ZM15 30.5C9.47667 30.5 5 26.0233 5 20.5C5 14.9767 9.47667 10.5 15 10.5C17.6 10.5 19.9683 11.4933 21.745 13.1217L19.355 15.4617C18.1867 14.4483 16.6667 13.8333 15 13.8333C11.3183 13.8333 8.33333 16.8183 8.33333 20.5C8.33333 24.1817 11.3183 27.1667 15 27.1667C18.3017 27.1667 21.0367 24.7633 21.5667 21.6117H15V18.2783H24.7383L24.7933 18.5C24.9267 19.1467 25 19.815 25 20.5C25 26.0233 20.5233 30.5 15 30.5ZM33.3333 22.1667V25.5H30V22.1667H26.6667V18.8333H30V15.5H33.3333V18.8333H36.6667V22.1667H33.3333Z" fill="white"/>
</svg>
