<svg width="40" height="41" viewBox="0 0 40 41" fill="none" xmlns="http://www.w3.org/2000/svg">
<g clip-path="url(#clip0_11419_31459)">
<path d="M20 0.5C8.955 0.5 0 9.455 0 20.5C0 31.545 8.955 40.5 20 40.5C31.045 40.5 40 31.545 40 20.5C40 9.455 31.045 0.5 20 0.5ZM30.7733 16.3917C30.7833 16.6133 30.7883 16.8333 30.7883 17.0533C30.7883 23.8333 25.63 31.6467 16.195 31.6467C13.2967 31.6467 10.6017 30.7983 8.33333 29.3417C8.735 29.39 9.14333 29.4117 9.55833 29.4117C11.9633 29.4117 14.1733 28.5933 15.9267 27.215C13.6817 27.1733 11.7867 25.69 11.135 23.6533C11.4483 23.7133 11.77 23.745 12.1 23.745C12.5683 23.745 13.0233 23.6817 13.4517 23.565C11.105 23.095 9.33667 21.0217 9.33667 18.5367C9.33667 18.515 9.33667 18.4933 9.33667 18.4717C10.0283 18.8567 10.8183 19.0867 11.66 19.1133C10.285 18.195 9.37833 16.6233 9.37833 14.845C9.37833 13.9033 9.63 13.0217 10.0717 12.2667C12.6017 15.37 16.3817 17.4133 20.6433 17.6267C20.5567 17.2517 20.5117 16.86 20.5117 16.4583C20.5117 13.6267 22.8083 11.3283 25.64 11.3283C27.115 11.3283 28.4483 11.9517 29.3833 12.9483C30.5517 12.7167 31.65 12.2917 32.6417 11.7033C32.2583 12.9017 31.445 13.905 30.385 14.5417C31.4217 14.4183 32.41 14.1433 33.3317 13.735C32.6467 14.765 31.7783 15.6667 30.7733 16.3917Z" fill="white" fill-opacity="0.05"/>
<path d="M20 0.5C8.955 0.5 0 9.455 0 20.5C0 31.545 8.955 40.5 20 40.5C31.045 40.5 40 31.545 40 20.5C40 9.455 31.045 0.5 20 0.5ZM30.7733 16.3917C30.7833 16.6133 30.7883 16.8333 30.7883 17.0533C30.7883 23.8333 25.63 31.6467 16.195 31.6467C13.2967 31.6467 10.6017 30.7983 8.33333 29.3417C8.735 29.39 9.14333 29.4117 9.55833 29.4117C11.9633 29.4117 14.1733 28.5933 15.9267 27.215C13.6817 27.1733 11.7867 25.69 11.135 23.6533C11.4483 23.7133 11.77 23.745 12.1 23.745C12.5683 23.745 13.0233 23.6817 13.4517 23.565C11.105 23.095 9.33667 21.0217 9.33667 18.5367C9.33667 18.515 9.33667 18.4933 9.33667 18.4717C10.0283 18.8567 10.8183 19.0867 11.66 19.1133C10.285 18.195 9.37833 16.6233 9.37833 14.845C9.37833 13.9033 9.63 13.0217 10.0717 12.2667C12.6017 15.37 16.3817 17.4133 20.6433 17.6267C20.5567 17.2517 20.5117 16.86 20.5117 16.4583C20.5117 13.6267 22.8083 11.3283 25.64 11.3283C27.115 11.3283 28.4483 11.9517 29.3833 12.9483C30.5517 12.7167 31.65 12.2917 32.6417 11.7033C32.2583 12.9017 31.445 13.905 30.385 14.5417C31.4217 14.4183 32.41 14.1433 33.3317 13.735C32.6467 14.765 31.7783 15.6667 30.7733 16.3917Z" fill="white" fill-opacity="0.1"/>
<path d="M20 0.5C8.955 0.5 0 9.455 0 20.5C0 31.545 8.955 40.5 20 40.5C31.045 40.5 40 31.545 40 20.5C40 9.455 31.045 0.5 20 0.5ZM30.7733 16.3917C30.7833 16.6133 30.7883 16.8333 30.7883 17.0533C30.7883 23.8333 25.63 31.6467 16.195 31.6467C13.2967 31.6467 10.6017 30.7983 8.33333 29.3417C8.735 29.39 9.14333 29.4117 9.55833 29.4117C11.9633 29.4117 14.1733 28.5933 15.9267 27.215C13.6817 27.1733 11.7867 25.69 11.135 23.6533C11.4483 23.7133 11.77 23.745 12.1 23.745C12.5683 23.745 13.0233 23.6817 13.4517 23.565C11.105 23.095 9.33667 21.0217 9.33667 18.5367C9.33667 18.515 9.33667 18.4933 9.33667 18.4717C10.0283 18.8567 10.8183 19.0867 11.66 19.1133C10.285 18.195 9.37833 16.6233 9.37833 14.845C9.37833 13.9033 9.63 13.0217 10.0717 12.2667C12.6017 15.37 16.3817 17.4133 20.6433 17.6267C20.5567 17.2517 20.5117 16.86 20.5117 16.4583C20.5117 13.6267 22.8083 11.3283 25.64 11.3283C27.115 11.3283 28.4483 11.9517 29.3833 12.9483C30.5517 12.7167 31.65 12.2917 32.6417 11.7033C32.2583 12.9017 31.445 13.905 30.385 14.5417C31.4217 14.4183 32.41 14.1433 33.3317 13.735C32.6467 14.765 31.7783 15.6667 30.7733 16.3917Z" fill="white" fill-opacity="0.4"/>
<path d="M20 0.5C8.955 0.5 0 9.455 0 20.5C0 31.545 8.955 40.5 20 40.5C31.045 40.5 40 31.545 40 20.5C40 9.455 31.045 0.5 20 0.5ZM30.7733 16.3917C30.7833 16.6133 30.7883 16.8333 30.7883 17.0533C30.7883 23.8333 25.63 31.6467 16.195 31.6467C13.2967 31.6467 10.6017 30.7983 8.33333 29.3417C8.735 29.39 9.14333 29.4117 9.55833 29.4117C11.9633 29.4117 14.1733 28.5933 15.9267 27.215C13.6817 27.1733 11.7867 25.69 11.135 23.6533C11.4483 23.7133 11.77 23.745 12.1 23.745C12.5683 23.745 13.0233 23.6817 13.4517 23.565C11.105 23.095 9.33667 21.0217 9.33667 18.5367C9.33667 18.515 9.33667 18.4933 9.33667 18.4717C10.0283 18.8567 10.8183 19.0867 11.66 19.1133C10.285 18.195 9.37833 16.6233 9.37833 14.845C9.37833 13.9033 9.63 13.0217 10.0717 12.2667C12.6017 15.37 16.3817 17.4133 20.6433 17.6267C20.5567 17.2517 20.5117 16.86 20.5117 16.4583C20.5117 13.6267 22.8083 11.3283 25.64 11.3283C27.115 11.3283 28.4483 11.9517 29.3833 12.9483C30.5517 12.7167 31.65 12.2917 32.6417 11.7033C32.2583 12.9017 31.445 13.905 30.385 14.5417C31.4217 14.4183 32.41 14.1433 33.3317 13.735C32.6467 14.765 31.7783 15.6667 30.7733 16.3917Z" fill="white" fill-opacity="0.6"/>
<path d="M20 0.5C8.955 0.5 0 9.455 0 20.5C0 31.545 8.955 40.5 20 40.5C31.045 40.5 40 31.545 40 20.5C40 9.455 31.045 0.5 20 0.5ZM30.7733 16.3917C30.7833 16.6133 30.7883 16.8333 30.7883 17.0533C30.7883 23.8333 25.63 31.6467 16.195 31.6467C13.2967 31.6467 10.6017 30.7983 8.33333 29.3417C8.735 29.39 9.14333 29.4117 9.55833 29.4117C11.9633 29.4117 14.1733 28.5933 15.9267 27.215C13.6817 27.1733 11.7867 25.69 11.135 23.6533C11.4483 23.7133 11.77 23.745 12.1 23.745C12.5683 23.745 13.0233 23.6817 13.4517 23.565C11.105 23.095 9.33667 21.0217 9.33667 18.5367C9.33667 18.515 9.33667 18.4933 9.33667 18.4717C10.0283 18.8567 10.8183 19.0867 11.66 19.1133C10.285 18.195 9.37833 16.6233 9.37833 14.845C9.37833 13.9033 9.63 13.0217 10.0717 12.2667C12.6017 15.37 16.3817 17.4133 20.6433 17.6267C20.5567 17.2517 20.5117 16.86 20.5117 16.4583C20.5117 13.6267 22.8083 11.3283 25.64 11.3283C27.115 11.3283 28.4483 11.9517 29.3833 12.9483C30.5517 12.7167 31.65 12.2917 32.6417 11.7033C32.2583 12.9017 31.445 13.905 30.385 14.5417C31.4217 14.4183 32.41 14.1433 33.3317 13.735C32.6467 14.765 31.7783 15.6667 30.7733 16.3917Z" fill="white" fill-opacity="0.8"/>
<path d="M20 0.5C8.955 0.5 0 9.455 0 20.5C0 31.545 8.955 40.5 20 40.5C31.045 40.5 40 31.545 40 20.5C40 9.455 31.045 0.5 20 0.5ZM30.7733 16.3917C30.7833 16.6133 30.7883 16.8333 30.7883 17.0533C30.7883 23.8333 25.63 31.6467 16.195 31.6467C13.2967 31.6467 10.6017 30.7983 8.33333 29.3417C8.735 29.39 9.14333 29.4117 9.55833 29.4117C11.9633 29.4117 14.1733 28.5933 15.9267 27.215C13.6817 27.1733 11.7867 25.69 11.135 23.6533C11.4483 23.7133 11.77 23.745 12.1 23.745C12.5683 23.745 13.0233 23.6817 13.4517 23.565C11.105 23.095 9.33667 21.0217 9.33667 18.5367C9.33667 18.515 9.33667 18.4933 9.33667 18.4717C10.0283 18.8567 10.8183 19.0867 11.66 19.1133C10.285 18.195 9.37833 16.6233 9.37833 14.845C9.37833 13.9033 9.63 13.0217 10.0717 12.2667C12.6017 15.37 16.3817 17.4133 20.6433 17.6267C20.5567 17.2517 20.5117 16.86 20.5117 16.4583C20.5117 13.6267 22.8083 11.3283 25.64 11.3283C27.115 11.3283 28.4483 11.9517 29.3833 12.9483C30.5517 12.7167 31.65 12.2917 32.6417 11.7033C32.2583 12.9017 31.445 13.905 30.385 14.5417C31.4217 14.4183 32.41 14.1433 33.3317 13.735C32.6467 14.765 31.7783 15.6667 30.7733 16.3917Z" fill="white"/>
</g>
<defs>
<clipPath id="clip0_11419_31459">
<rect width="40" height="40" fill="white" transform="translate(0 0.5)"/>
</clipPath>
</defs>
</svg>
